<svg width="24" height="25" viewBox="0 0 24 25" fill="none" xmlns="http://www.w3.org/2000/svg">
<path d="M3.75 6.5C3.75 5.90326 3.98705 5.33097 4.40901 4.90901C4.83097 4.48705 5.40326 4.25 6 4.25H8.25C8.84674 4.25 9.41903 4.48705 9.84099 4.90901C10.2629 5.33097 10.5 5.90326 10.5 6.5V8.75C10.5 9.34674 10.2629 9.91903 9.84099 10.341C9.41903 10.7629 8.84674 11 8.25 11H6C5.40326 11 4.83097 10.7629 4.40901 10.341C3.98705 9.91903 3.75 9.34674 3.75 8.75V6.5ZM3.75 16.25C3.75 15.6533 3.98705 15.081 4.40901 14.659C4.83097 14.2371 5.40326 14 6 14H8.25C8.84674 14 9.41903 14.2371 9.84099 14.659C10.2629 15.081 10.5 15.6533 10.5 16.25V18.5C10.5 19.0967 10.2629 19.669 9.84099 20.091C9.41903 20.5129 8.84674 20.75 8.25 20.75H6C5.40326 20.75 4.83097 20.5129 4.40901 20.091C3.98705 19.669 3.75 19.0967 3.75 18.5V16.25ZM13.5 6.5C13.5 5.90326 13.7371 5.33097 14.159 4.90901C14.581 4.48705 15.1533 4.25 15.75 4.25H18C18.5967 4.25 19.169 4.48705 19.591 4.90901C20.0129 5.33097 20.25 5.90326 20.25 6.5V8.75C20.25 9.34674 20.0129 9.91903 19.591 10.341C19.169 10.7629 18.5967 11 18 11H15.75C15.1533 11 14.581 10.7629 14.159 10.341C13.7371 9.91903 13.5 9.34674 13.5 8.75V6.5ZM13.5 16.25C13.5 15.6533 13.7371 15.081 14.159 14.659C14.581 14.2371 15.1533 14 15.75 14H18C18.5967 14 19.169 14.2371 19.591 14.659C20.0129 15.081 20.25 15.6533 20.25 16.25V18.5C20.25 19.0967 20.0129 19.669 19.591 20.091C19.169 20.5129 18.5967 20.75 18 20.75H15.75C15.1533 20.75 14.581 20.5129 14.159 20.091C13.7371 19.669 13.5 19.0967 13.5 18.5V16.25Z" stroke="#E5E7EB" stroke-width="1.5" stroke-linecap="round" stroke-linejoin="round"/>
</svg>
