<svg width="24" height="25" viewBox="0 0 24 25" fill="none" xmlns="http://www.w3.org/2000/svg">
<path d="M2.25 13.25V12.5C2.25 11.9033 2.48705 11.331 2.90901 10.909C3.33097 10.4871 3.90326 10.25 4.5 10.25H19.5C20.0967 10.25 20.669 10.4871 21.091 10.909C21.5129 11.331 21.75 11.9033 21.75 12.5V13.25M13.06 6.81L10.94 4.69C10.8007 4.55055 10.6353 4.43992 10.4533 4.36442C10.2712 4.28892 10.0761 4.25004 9.879 4.25H4.5C3.90326 4.25 3.33097 4.48705 2.90901 4.90901C2.48705 5.33097 2.25 5.90326 2.25 6.5V18.5C2.25 19.0967 2.48705 19.669 2.90901 20.091C3.33097 20.5129 3.90326 20.75 4.5 20.75H19.5C20.0967 20.75 20.669 20.5129 21.091 20.091C21.5129 19.669 21.75 19.0967 21.75 18.5V9.5C21.75 8.90326 21.5129 8.33097 21.091 7.90901C20.669 7.48705 20.0967 7.25 19.5 7.25H14.121C13.7233 7.24965 13.341 7.09138 13.06 6.81Z" stroke="#E5E7EB" stroke-width="1.5" stroke-linecap="round" stroke-linejoin="round"/>
</svg>
