<svg width="24" height="25" viewBox="0 0 24 25" fill="none" xmlns="http://www.w3.org/2000/svg">
<path d="M15 19.628C15.853 19.8757 16.7368 20.0009 17.625 20C19.0534 20.0021 20.4633 19.6764 21.746 19.048C21.7839 18.1517 21.5286 17.2675 21.0188 16.5293C20.509 15.7912 19.7724 15.2394 18.9207 14.9575C18.0691 14.6757 17.1487 14.6791 16.2992 14.9674C15.4497 15.2557 14.7173 15.813 14.213 16.555M15 19.628V19.625C15 18.512 14.714 17.465 14.213 16.555M15 19.628V19.734C13.0755 20.8931 10.8706 21.5038 8.62402 21.5C6.29302 21.5 4.11202 20.855 2.25002 19.734L2.24902 19.625C2.24826 18.2095 2.71864 16.8339 3.58601 15.7153C4.45338 14.5966 5.6684 13.7984 7.03951 13.4466C8.41063 13.0948 9.85985 13.2093 11.1587 13.7721C12.4575 14.3349 13.5321 15.314 14.213 16.555M12 6.875C12 7.77011 11.6444 8.62855 11.0115 9.26149C10.3786 9.89442 9.52013 10.25 8.62502 10.25C7.72992 10.25 6.87147 9.89442 6.23854 9.26149C5.6056 8.62855 5.25002 7.77011 5.25002 6.875C5.25002 5.97989 5.6056 5.12145 6.23854 4.48851C6.87147 3.85558 7.72992 3.5 8.62502 3.5C9.52013 3.5 10.3786 3.85558 11.0115 4.48851C11.6444 5.12145 12 5.97989 12 6.875ZM20.25 9.125C20.25 9.82119 19.9735 10.4889 19.4812 10.9812C18.9889 11.4734 18.3212 11.75 17.625 11.75C16.9288 11.75 16.2612 11.4734 15.7689 10.9812C15.2766 10.4889 15 9.82119 15 9.125C15 8.42881 15.2766 7.76113 15.7689 7.26884C16.2612 6.77656 16.9288 6.5 17.625 6.5C18.3212 6.5 18.9889 6.77656 19.4812 7.26884C19.9735 7.76113 20.25 8.42881 20.25 9.125Z" stroke="#E5E7EB" stroke-width="1.5" stroke-linecap="round" stroke-linejoin="round"/>
</svg>
